<?xml version="1.0" encoding="utf-8"?>
<!-- Generator: Adobe Illustrator 25.4.1, SVG Export Plug-In . SVG Version: 6.00 Build 0)  -->
<svg version="1.1" id="Layer_1" xmlns="http://www.w3.org/2000/svg" xmlns:xlink="http://www.w3.org/1999/xlink" x="0px" y="0px"
	 viewBox="0 0 283.5 147.4" style="enable-background:new 0 0 283.5 147.4;" xml:space="preserve">
<style type="text/css">
	.st0{fill:#EEF8FF;stroke:#A9C8DD;}
	.st1{fill:none;stroke:#A9C8DD;stroke-width:0.5;stroke-dasharray:3,4;}
	.st2{fill:#3F414B;}
	.st3{fill:#1C34BC;}
</style>
<g>
	<path class="st0" d="M262.2,99.7c0,4.8,3.8,8.7,8.5,9v8c-4.7,0.3-8.5,4.2-8.5,9s3.8,8.7,8.5,9v10.5h-258v-10.5
		c4.7-0.3,8.5-4.2,8.5-9s-3.8-8.7-8.5-9v-8c4.7-0.3,8.5-4.2,8.5-9c0-4.8-3.8-8.7-8.5-9v-8c4.7-0.3,8.5-4.2,8.5-9s-3.8-8.7-8.5-9v-8
		c4.7-0.3,8.5-4.2,8.5-9s-3.8-8.7-8.5-9v-8c4.7-0.3,8.5-4.2,8.5-9s-3.8-8.7-8.5-9V2.2h258v10.5c-4.7,0.3-8.5,4.2-8.5,9
		s3.8,8.7,8.5,9v8c-4.7,0.3-8.5,4.2-8.5,9s3.8,8.7,8.5,9v8c-4.7,0.3-8.5,4.2-8.5,9s3.8,8.7,8.5,9v8C266,91,262.2,94.9,262.2,99.7z"
		/>
	<rect x="41.5" y="32" class="st1" width="0.5" height="85.5"/>
	<rect x="241.5" y="32" class="st1" width="0.5" height="85.5"/>
	<path class="st2" d="M90,49.1v-0.7l1.4-0.3v1c0,0.7,0.2,1.2,0.5,1.5c0.3,0.3,0.7,0.5,1.3,0.5c0.5,0,0.9-0.2,1.2-0.5
		c0.3-0.3,0.4-0.8,0.4-1.4v-7.3h1.4v7.2c0,0.9-0.3,1.7-0.9,2.3c-0.6,0.6-1.3,0.9-2.2,0.9c-1,0-1.8-0.3-2.4-0.9
		C90.2,50.9,90,50.1,90,49.1z"/>
	<path class="st2" d="M101.3,44.1c-0.7,0.7-1.1,1.7-1.1,3c0,1.3,0.4,2.3,1.1,3c0.7,0.7,1.6,1.1,2.6,1.1s1.9-0.4,2.6-1.1
		c0.7-0.7,1.1-1.7,1.1-3c0-1.3-0.4-2.3-1.1-3c-0.7-0.7-1.6-1.1-2.6-1.1S102.1,43.4,101.3,44.1z M98.8,47.1c0-0.8,0.1-1.6,0.4-2.3
		c0.3-0.7,0.7-1.2,1.2-1.7c0.5-0.4,1-0.8,1.7-1c0.6-0.2,1.2-0.4,1.9-0.4c0.7,0,1.3,0.1,1.9,0.4c0.6,0.2,1.2,0.6,1.6,1
		c0.5,0.4,0.9,1,1.2,1.7c0.3,0.7,0.5,1.4,0.5,2.3c0,1.1-0.3,2.1-0.8,2.9c-0.5,0.8-1.1,1.5-1.9,1.9c-0.8,0.4-1.6,0.6-2.5,0.6
		c-0.9,0-1.7-0.2-2.5-0.6c-0.8-0.4-1.4-1-1.9-1.9C99.1,49.1,98.8,48.2,98.8,47.1z"/>
	<path class="st2" d="M113.3,52.2h-1.5V41.9h1.5V52.2z"/>
	<path class="st2" d="M125.1,52.2h-1.5l-5.6-8.4v8.4h-1.4V41.9h1.9l5.1,7.9v-7.9h1.4V52.2z"/>
	<path class="st2" d="M132.7,41.9h3.4c1,0,1.7,0.3,2.3,0.8c0.6,0.5,0.8,1.2,0.8,2c0,0.5-0.1,1-0.4,1.4c-0.3,0.4-0.7,0.7-1.1,0.8
		c0.6,0.1,1,0.4,1.3,0.9c0.3,0.5,0.5,1,0.5,1.6c0,0.8-0.3,1.5-0.9,2c-0.6,0.5-1.4,0.8-2.3,0.8h-3.6V41.9z M134.2,46.4h1.8
		c0.6,0,1-0.1,1.3-0.4c0.3-0.3,0.5-0.7,0.5-1.2c0-0.5-0.2-0.9-0.5-1.2c-0.3-0.3-0.8-0.4-1.4-0.4h-1.7V46.4z M134.2,51h2
		c0.6,0,1-0.1,1.4-0.4c0.4-0.3,0.5-0.7,0.5-1.2c0-0.5-0.2-0.9-0.5-1.2c-0.3-0.3-0.8-0.5-1.4-0.5h-2V51z"/>
	<path class="st2" d="M148.4,52.2h-6.3V41.9h6.3v1.3h-4.8v3.2h4.4v1.3h-4.4v3.1h4.8V52.2z"/>
	<path class="st2" d="M159.8,52.2h-1.5l-5.6-8.4v8.4h-1.4V41.9h1.9l5.1,7.9v-7.9h1.4V52.2z"/>
	<path class="st2" d="M169.4,52.2h-6.3V41.9h6.3v1.3h-4.8v3.2h4.4v1.3h-4.4v3.1h4.8V52.2z"/>
	<path class="st2" d="M173.7,52.2h-1.4V41.9h6.3v1.3h-4.8v3.3h4.4v1.3h-4.4V52.2z"/>
	<path class="st2" d="M182.5,52.2H181V41.9h1.5V52.2z"/>
	<path class="st2" d="M192.9,43.2h-3.4v9h-1.4v-9h-3.4v-1.3h8.3V43.2z"/>
	<path class="st3" d="M77.3,100.3c-1.8,0-3.3-0.4-4.4-1.3c-1.1-0.9-1.6-2.4-1.6-4.4c0.4-0.9,0.9-1.3,1.6-1.2c0.5,0,0.9,0.2,1.2,0.5
		c0.3,0.4,0.4,1,0.5,1.9l0.1,2.5c0.6,0.2,1.4,0.3,2.2,0.3c0.8,0,1.6-0.2,2.3-0.5c0.7-0.4,1.3-1,1.8-1.7c0.4-0.8,0.7-1.7,0.7-2.9
		c0-1.3-0.4-2.3-1.1-3c-0.7-0.7-1.6-1-2.9-1h-1.1l0.3-1.6H78c0.8,0,1.6-0.2,2.4-0.5c0.8-0.4,1.4-1,1.8-1.7c0.5-0.8,0.7-1.7,0.7-2.9
		c0-1.3-0.3-2.2-0.9-2.8c-0.6-0.6-1.4-0.9-2.3-0.9c-0.7,0-1.4,0.1-2,0.3l-0.3,2.3c-0.2,1.4-0.8,2.2-1.9,2.2c-0.4,0-0.7-0.1-1-0.3
		c-0.3-0.2-0.5-0.5-0.6-0.8c0.2-1.7,0.9-3,2.1-3.9c1.2-0.9,2.7-1.4,4.6-1.4c2,0,3.5,0.5,4.4,1.5c1,1,1.4,2.2,1.4,3.6
		c0,1.5-0.5,2.7-1.5,3.8c-1,1.1-2.4,1.8-4.1,2.3c3.1,0.6,4.6,2.4,4.6,5.1c0,1.3-0.4,2.5-1.1,3.5c-0.7,1-1.7,1.7-2.9,2.3
		C80.1,100,78.8,100.3,77.3,100.3z"/>
	<path class="st3" d="M87.2,105.3l-0.4-1.2c1.7-0.7,3.1-1.9,4.1-3.5l-1-0.9c-0.4-0.3-0.6-0.6-0.8-1c-0.2-0.4-0.2-0.8-0.2-1.2
		c0-0.6,0.2-1.2,0.6-1.7c0.4-0.5,1-0.8,1.9-0.8c0.7,0,1.4,0.2,2,0.7c0.1,0.2,0.2,0.5,0.2,0.7c0.1,0.2,0.1,0.5,0.1,0.8
		c0,1.2-0.3,2.4-0.8,3.4c-0.5,1.1-1.3,2-2.3,2.8C89.6,104.3,88.5,104.9,87.2,105.3z"/>
	<path class="st3" d="M104.7,100.2c-1.8,0-3.2-0.6-4.3-1.9c-1.1-1.3-1.6-3.1-1.6-5.5c0-2.2,0.3-4.2,0.8-6c0.5-1.8,1.3-3.5,2.2-4.8
		c0.9-1.4,2-2.5,3.2-3.2c1.2-0.8,2.5-1.2,3.8-1.2c1.9,0,3.3,0.6,4.3,1.8c1,1.2,1.6,3.1,1.6,5.5c0,2.2-0.3,4.3-0.8,6.1
		c-0.5,1.9-1.3,3.5-2.2,4.9c-0.9,1.4-2,2.4-3.2,3.2C107.3,99.8,106,100.2,104.7,100.2z M105,98.5c0.8,0,1.5-0.4,2.2-1.2
		c0.7-0.8,1.4-1.9,2-3.2c0.6-1.3,1-2.9,1.4-4.5c0.4-1.7,0.5-3.4,0.5-5.2c0-1.4-0.1-2.4-0.4-3.2c-0.2-0.8-0.6-1.3-1-1.6
		c-0.4-0.3-0.8-0.5-1.3-0.5c-0.7,0-1.5,0.4-2.2,1.1c-0.7,0.7-1.4,1.7-2,3c-0.6,1.3-1,2.8-1.4,4.4c-0.4,1.7-0.5,3.4-0.5,5.2
		c0,1.4,0.1,2.6,0.3,3.4c0.2,0.8,0.5,1.4,0.9,1.7C104,98.4,104.5,98.5,105,98.5z"/>
	<path class="st3" d="M122.3,100.2c-1.8,0-3.2-0.6-4.3-1.9c-1.1-1.3-1.6-3.1-1.6-5.5c0-2.2,0.3-4.2,0.8-6c0.5-1.8,1.3-3.5,2.2-4.8
		c0.9-1.4,2-2.5,3.2-3.2c1.2-0.8,2.5-1.2,3.8-1.2c1.9,0,3.3,0.6,4.3,1.8c1,1.2,1.6,3.1,1.6,5.5c0,2.2-0.3,4.3-0.8,6.1
		c-0.5,1.9-1.3,3.5-2.2,4.9c-0.9,1.4-2,2.4-3.2,3.2C124.9,99.8,123.6,100.2,122.3,100.2z M122.6,98.5c0.8,0,1.5-0.4,2.2-1.2
		c0.7-0.8,1.4-1.9,2-3.2c0.6-1.3,1-2.9,1.4-4.5c0.4-1.7,0.5-3.4,0.5-5.2c0-1.4-0.1-2.4-0.4-3.2c-0.2-0.8-0.6-1.3-1-1.6
		c-0.4-0.3-0.8-0.5-1.3-0.5c-0.7,0-1.5,0.4-2.2,1.1c-0.7,0.7-1.4,1.7-2,3c-0.6,1.3-1,2.8-1.4,4.4c-0.4,1.7-0.5,3.4-0.5,5.2
		c0,1.4,0.1,2.6,0.3,3.4c0.2,0.8,0.5,1.4,0.9,1.7C121.6,98.4,122.1,98.5,122.6,98.5z"/>
	<path class="st3" d="M139.9,100.2c-1.8,0-3.2-0.6-4.3-1.9c-1.1-1.3-1.6-3.1-1.6-5.5c0-2.2,0.3-4.2,0.8-6c0.5-1.8,1.3-3.5,2.2-4.8
		c0.9-1.4,2-2.5,3.2-3.2c1.2-0.8,2.5-1.2,3.8-1.2c1.9,0,3.3,0.6,4.3,1.8c1,1.2,1.6,3.1,1.6,5.5c0,2.2-0.3,4.3-0.8,6.1
		c-0.5,1.9-1.3,3.5-2.2,4.9c-0.9,1.4-2,2.4-3.2,3.2C142.5,99.8,141.3,100.2,139.9,100.2z M140.2,98.5c0.8,0,1.5-0.4,2.2-1.2
		c0.7-0.8,1.4-1.9,2-3.2c0.6-1.3,1-2.9,1.4-4.5c0.4-1.7,0.5-3.4,0.5-5.2c0-1.4-0.1-2.4-0.4-3.2c-0.2-0.8-0.6-1.3-1-1.6
		c-0.4-0.3-0.8-0.5-1.3-0.5c-0.7,0-1.5,0.4-2.2,1.1c-0.7,0.7-1.4,1.7-2,3c-0.6,1.3-1,2.8-1.4,4.4c-0.4,1.7-0.5,3.4-0.5,5.2
		c0,1.4,0.1,2.6,0.3,3.4c0.2,0.8,0.5,1.4,0.9,1.7C139.2,98.4,139.7,98.5,140.2,98.5z"/>
	<path class="st3" d="M155.8,99.8c-0.1-2.5-0.3-4.8-0.5-6.8c-0.2-2-0.4-4-0.6-5.8c-0.1-0.6-0.2-1-0.3-1.1c-0.1-0.2-0.3-0.2-0.5-0.2
		c-0.5,0-1.1,0.6-1.9,1.7l-0.8-0.7c1.5-2.7,3-4,4.6-4c0.8,0,1.4,0.2,1.7,0.7c0.4,0.4,0.6,1.1,0.7,2.1c0.2,1.4,0.3,3,0.4,4.7
		c0.1,1.8,0.2,3.5,0.3,5.2c1.1-1.8,2.1-3.7,3.1-5.8c1-2,2-4.2,3-6.4h2.1c0,0.4,0.1,0.9,0.1,1.7c0.1,0.8,0.1,1.7,0.2,2.7
		c0.1,1,0.1,2,0.2,3.1c0.1,1.1,0.2,2,0.2,3c0.1,0.9,0.1,1.7,0.2,2.3c0.9-1.3,1.8-2.5,2.5-3.7c0.8-1.2,1.5-2.5,2.3-3.8l-0.3-1.2
		c-0.1-0.3-0.2-0.7-0.3-1.1c-0.1-0.4-0.1-0.7-0.1-1c0-0.9,0.2-1.6,0.7-2c0.5-0.4,1.1-0.7,1.7-0.7c0.3,0,0.5,0.1,0.7,0.2
		c0.2,0.1,0.4,0.2,0.5,0.3c0.1,0.2,0.2,0.4,0.2,0.6c0.1,0.2,0.1,0.5,0.1,1c0,0.4-0.1,0.9-0.3,1.5c-0.2,0.6-0.6,1.6-1.3,2.9
		c-0.8,1.5-1.9,3.2-3.2,5.1s-2.8,3.7-4.5,5.5l-1.7,0.2l-0.3-0.2c0-0.5-0.1-1.2-0.2-2c-0.1-0.9-0.1-1.8-0.2-2.8c-0.1-1-0.1-2-0.2-3
		c-0.1-1-0.1-1.8-0.2-2.5c-0.5,1.1-1.1,2.2-1.8,3.4c-0.6,1.2-1.3,2.4-2.1,3.6c-0.7,1.2-1.4,2.3-2.2,3.4l-1.8,0.2L155.8,99.8z"/>
	<path class="st3" d="M182.8,100.3c-1.1,0-2.1-0.2-3.1-0.7c-0.9-0.5-1.6-1.2-2.2-2.1c-0.5-0.9-0.8-2.1-0.8-3.5
		c0-1.5,0.2-2.9,0.7-4.2c0.5-1.3,1.2-2.5,2-3.5c0.8-1,1.8-1.8,2.9-2.4c1.1-0.6,2.3-0.9,3.6-0.9c1.7,0,3.1,0.5,4.2,1.6
		c1.1,1,1.7,2.6,1.7,4.7c0,1.5-0.2,2.9-0.7,4.2c-0.5,1.3-1.1,2.5-1.9,3.6c-0.8,1-1.8,1.8-2.9,2.4C185.3,100,184.1,100.3,182.8,100.3
		z M183.2,98.7c0.7,0,1.4-0.3,2-0.8c0.6-0.6,1.2-1.3,1.6-2.3c0.4-1,0.8-2,1-3.2c0.2-1.2,0.4-2.3,0.4-3.5c0-1.6-0.2-2.8-0.7-3.4
		c-0.5-0.7-1.1-1-1.8-1c-0.7,0-1.4,0.3-2,0.8c-0.6,0.5-1.1,1.3-1.6,2.2c-0.4,0.9-0.8,2-1.1,3.1c-0.2,1.2-0.4,2.4-0.4,3.6
		c0,1.6,0.2,2.8,0.7,3.4C181.8,98.3,182.4,98.7,183.2,98.7z"/>
	<path class="st3" d="M197.9,99.8l-3.3,0.3l-0.4-0.3l2.8-13.5l-2.8-0.3l0.2-1.2l6.2-1.8l0.5,0.4l-0.7,3.4c1.1-1.1,2.3-2,3.5-2.7
		c1.2-0.7,2.4-1.1,3.4-1.1c0.7,0,1.3,0.2,1.7,0.7c0.4,0.4,0.6,1.1,0.6,2c0,0.5-0.1,1-0.2,1.6c-0.1,0.5-0.2,1.1-0.3,1.6l-1.5,6.4
		c-0.1,0.4-0.2,0.7-0.3,1c-0.1,0.3-0.1,0.5-0.1,0.7c0,0.5,0.2,0.7,0.6,0.7c0.7,0,1.7-0.8,2.9-2.3l0.9,0.7c-0.4,0.7-1,1.4-1.6,2.1
		c-0.6,0.7-1.3,1.2-2.1,1.6c-0.8,0.4-1.6,0.6-2.4,0.6c-0.6,0-1.2-0.2-1.5-0.5c-0.4-0.3-0.5-0.8-0.5-1.3c0-0.5,0-0.9,0.1-1.4
		c0.1-0.5,0.2-1,0.4-1.6l1.3-5.6c0.1-0.5,0.2-1.1,0.3-1.5c0.1-0.5,0.2-0.9,0.2-1.2c0-0.9-0.3-1.3-1-1.3c-0.5,0-1.2,0.2-2,0.7
		c-0.8,0.4-1.7,1.1-2.7,2l-0.9,4.1c-0.2,1.2-0.5,2.4-0.7,3.6C198.3,97.3,198.1,98.5,197.9,99.8z"/>
</g>
</svg>
